<mxfile host="app.diagrams.net" agent="Mozilla/5.0 (Windows NT 10.0; Win64; x64) AppleWebKit/537.36 (KHTML, like Gecko) Chrome/135.0.0.0 Safari/537.36" version="26.2.14">
  <diagram name="Stránka-1" id="k4lvN3uInNxLrgnKaVkX">
    <mxGraphModel dx="1042" dy="562" grid="1" gridSize="10" guides="1" tooltips="1" connect="1" arrows="1" fold="1" page="1" pageScale="1" pageWidth="827" pageHeight="1169" math="0" shadow="0">
      <root>
        <mxCell id="0" />
        <mxCell id="1" parent="0" />
        <mxCell id="n_Ihtd5cOjVZIA6dasW7-1" value="" style="ellipse;whiteSpace=wrap;html=1;" vertex="1" parent="1">
          <mxGeometry x="354" y="20" width="120" height="50" as="geometry" />
        </mxCell>
        <mxCell id="n_Ihtd5cOjVZIA6dasW7-2" value="začátek" style="text;html=1;align=center;verticalAlign=middle;whiteSpace=wrap;rounded=0;" vertex="1" parent="1">
          <mxGeometry x="384" y="30" width="60" height="30" as="geometry" />
        </mxCell>
        <mxCell id="n_Ihtd5cOjVZIA6dasW7-3" value="" style="rounded=0;whiteSpace=wrap;html=1;" vertex="1" parent="1">
          <mxGeometry x="374" y="100" width="136" height="150" as="geometry" />
        </mxCell>
        <mxCell id="n_Ihtd5cOjVZIA6dasW7-4" value="&lt;font style=&quot;font-size: 15px;&quot; face=&quot;Helvetica&quot;&gt;připrav si:&amp;nbsp;&lt;span style=&quot;background-color: rgb(255, 255, 255); color: rgb(37, 36, 36); text-align: left;&quot;&gt;- 250 g hladké mouky&lt;/span&gt;&lt;/font&gt;&lt;p style=&quot;box-sizing: border-box; margin: 0px; color: rgb(37, 36, 36); text-align: left; background-color: rgb(255, 255, 255); border-radius: 0px !important;&quot;&gt;&lt;font style=&quot;font-size: 15px;&quot; face=&quot;Helvetica&quot;&gt;- 500 ml mléka&lt;br style=&quot;box-sizing: border-box; border-radius: 0px !important;&quot;&gt;- 2 vejce&lt;br style=&quot;box-sizing: border-box; border-radius: 0px !important;&quot;&gt;-Špetka soli&lt;br style=&quot;box-sizing: border-box; border-radius: 0px !important;&quot;&gt;- Olej nebo máslo na smažení&amp;nbsp;&amp;nbsp;&lt;/font&gt;&lt;/p&gt;&lt;div&gt;&lt;br&gt;&lt;/div&gt;" style="text;html=1;align=center;verticalAlign=middle;whiteSpace=wrap;rounded=0;" vertex="1" parent="1">
          <mxGeometry x="380" y="100" width="130" height="150" as="geometry" />
        </mxCell>
        <mxCell id="n_Ihtd5cOjVZIA6dasW7-5" value="" style="endArrow=classic;html=1;rounded=0;exitX=0.5;exitY=1;exitDx=0;exitDy=0;entryX=0.434;entryY=0.028;entryDx=0;entryDy=0;entryPerimeter=0;" edge="1" parent="1" source="n_Ihtd5cOjVZIA6dasW7-1" target="n_Ihtd5cOjVZIA6dasW7-4">
          <mxGeometry width="50" height="50" relative="1" as="geometry">
            <mxPoint x="390" y="310" as="sourcePoint" />
            <mxPoint x="440" y="260" as="targetPoint" />
          </mxGeometry>
        </mxCell>
      </root>
    </mxGraphModel>
  </diagram>
</mxfile>
